<svg xmlns="http://www.w3.org/2000/svg" viewBox="0 0 221.48 253.32"><title>Asset 4</title><g id="Layer_2" data-name="Layer 2"><g id="Layer_1-2" data-name="Layer 1"><path d="M111.36,64.15c-14,11.57-12.31,31.68-3.65,45.9s25.11,30.36,43.09,29.15C168,138,178.57,121,179.12,105.1c.36-10.51-2.78-20.83-6.92-30.38-3.7-8.53-8.35-17-15.25-23.38-11.6-10.72-33.25-13.53-42,2.33-.94,1.69,1.65,3.2,2.59,1.51,7.64-13.77,26.54-11.33,36.76-2.25,11.7,10.39,19.2,28.23,21.35,43.46s-3.63,34.23-20.06,39-32.46-9.44-41.68-21.62c-10.37-13.7-15.53-34.94-.39-47.46,1.49-1.23-.64-3.34-2.12-2.12Z"/><path d="M110.87,89.31a6.31,6.31,0,0,1,9.66-.11c1.25,1.47,3.37-.66,2.12-2.12a9.28,9.28,0,0,0-13.9.11c-1.21,1.48.9,3.62,2.12,2.12Z"/><path d="M133.31,91.14l10,1.87c1.89.35,2.7-2.54.8-2.89l-10-1.87c-1.89-.35-2.7,2.54-.8,2.89Z"/><path d="M164,112.42a299.41,299.41,0,0,0,57.22-64.07c1.06-1.62-1.54-3.12-2.59-1.51a296.71,296.71,0,0,1-56.75,63.46c-1.48,1.25.66,3.36,2.12,2.12Z"/><path d="M112.08,62.85,84.63.78C83.85-1,81.27.55,82,2.3l27.44,62.07c.78,1.76,3.36.24,2.59-1.51Z"/><path d="M143.86,135.94c-3.18,8.57-6.93,19.72-.48,27.77,4.36,5.44,13.1,8.31,18.42,2.53,5-5.39,2.35-13.8-1.56-19C154,139,142.64,136.89,136.76,128.2c-1.08-1.59-3.68-.09-2.59,1.51,7.13,10.54,24,12.84,27,26.24,2.26,10.07-8.52,13.36-14.82,6.6-6.6-7.08-2.49-18,.41-25.82.67-1.81-2.23-2.59-2.89-.8Z"/><path d="M132.2,136.75q-11.91,18.48-23.82,37c-2.46,3.84-5.66,8.21-4.92,13.05a7.76,7.76,0,0,0,6.43,6.76c1.89.29,2.7-2.6.8-2.89-11.67-1.77,5-22.69,7.86-27.17l16.24-25.2c1-1.63-1.55-3.13-2.59-1.51Z"/><path d="M148.18,157.62l36,32c1.44,1.28,3.57-.84,2.12-2.12l-36-32c-1.44-1.28-3.57.84-2.12,2.12Z"/><path d="M7.13,163.33c-5.44,3-7.74,9-7,15,.87,6.95,6,12.19,11.59,15.87,15.12,9.89,34.82,14.37,52.66,15.16,15.27.67,36.95-.27,44.16-16.59,6.68-15.1-7.88-25.68-20-30.93a230.33,230.33,0,0,0-65-17.05c-1.91-.22-1.9,2.78,0,3a230.87,230.87,0,0,1,46.5,10.24c11.68,3.89,30.12,8.73,35.79,21.09,3.53,7.7-.53,16-6.93,20.72-6.83,5-15.72,6.09-24,6.48a115.94,115.94,0,0,1-44.74-6.75c-7.58-2.73-16.32-6.12-22.05-12s-8.11-17,.45-21.65c1.7-.92.18-3.51-1.51-2.59Z"/><path d="M22.18,162.51l2,10c.38,1.89,3.27,1.09,2.89-.8l-2-10c-.38-1.89-3.27-1.09-2.89.8Z"/><path d="M34.57,189.18l4,4a1.5,1.5,0,0,0,2.12-2.12l-4-4a1.5,1.5,0,0,0-2.12,2.12Z"/><path d="M42.87,164.48l10-58c.33-1.89-2.56-2.7-2.89-.8l-10,58c-.33,1.89,2.56,2.7,2.89.8Z"/><path d="M58.9,189.7,34.48,230.33a1.5,1.5,0,0,0,2.59,1.51l24.43-40.63a1.5,1.5,0,0,0-2.59-1.51Z"/><path d="M76.39,194.49a38.09,38.09,0,0,0,15.72,26c1.57,1.13,3.07-1.47,1.51-2.59a35.32,35.32,0,0,1-14.34-24.23c-.26-1.9-3.15-1.09-2.89.8Z"/><path d="M94.93,208.87l4-6c1.07-1.61-1.52-3.11-2.59-1.51l-4,6c-1.07,1.61,1.52,3.11,2.59,1.51Z"/><path d="M98.59,185.15,64,151.75c-1.39-1.34-3.51.78-2.12,2.12l34.57,33.41c1.39,1.34,3.51-.78,2.12-2.12Z"/><path d="M96.78,150.95a8.38,8.38,0,0,1-2.2,13.19c-1.73.86-.21,3.44,1.51,2.59,6.6-3.27,8-12.77,2.81-17.9-1.38-1.36-3.5.76-2.12,2.12Z"/><path d="M129.08,173.59c-14.11,2.32-29.77,5.8-39.68,17-8,9-11.78,22.9-4.81,33.62,13.59,20.91,51.38,17.45,59.47-6.61,4-11.87,0-26-10.83-32.69-1.64-1-3.15,1.57-1.51,2.59,11.35,7.05,14.12,23.64,6.88,34.64-7.81,11.86-24.29,15.5-37.23,11-7.73-2.7-15-8.46-16.93-16.73-1.7-7.1.63-14.61,4.63-20.52,9-13.26,26-17,40.81-19.39,1.9-.31,1.09-3.2-.8-2.89Z"/><path d="M106.52,202.77a15.07,15.07,0,0,0,15.57,7.08c1.9-.32,1.09-3.21-.8-2.89a12,12,0,0,1-12.18-5.7,1.5,1.5,0,0,0-2.59,1.51Z"/><path d="M118.76,213l39.52,39.08c1.37,1.36,3.5-.76,2.12-2.12l-39.52-39.08c-1.37-1.36-3.5.76-2.12,2.12Z"/><path d="M138.26,216.53a124.29,124.29,0,0,0,63.35,14.73c1.92-.07,1.93-3.07,0-3a121.19,121.19,0,0,1-61.84-14.32c-1.7-.91-3.22,1.68-1.51,2.59Z"/><path d="M120.19,209.72l-16.52,41.79c-.71,1.8,2.19,2.58,2.89.8l16.52-41.79c.71-1.8-2.19-2.58-2.89-.8Z"/><path d="M69.53,75.39c-27.06-2.77-50.95,26.71-39,52.18,11.29,24,44.35,31.12,62.05,10.12,9.05-10.74,12.55-25.92,7.34-39.17-.7-1.78-3.6-1-2.89.8,5.38,13.69,1,29.54-9.63,39.5-11.26,10.6-27.57,11.09-40.36,2.92-13-8.27-20.27-24-15-39,5.39-15.31,21.25-26.06,37.48-24.39,1.92.2,1.9-2.8,0-3Z"/><path d="M62.16,103.51a13.94,13.94,0,0,0,15.75,3.8c1.76-.72,1-3.63-.8-2.89a11.07,11.07,0,0,1-12.83-3c-1.27-1.46-3.38.67-2.12,2.12Z"/><path d="M63.63,123.62a1.5,1.5,0,0,0,0-3,1.5,1.5,0,0,0,0,3Z"/><path d="M78.57,127.18l20,20a1.5,1.5,0,0,0,2.12-2.12l-20-20a1.5,1.5,0,0,0-2.12,2.12Z"/><path d="M66.55,137.19l16,20c1.21,1.51,3.32-.63,2.12-2.12l-16-20c-1.21-1.51-3.32.63-2.12,2.12Z"/><path d="M44.73,101.8l-13.88-62c-.42-1.88-3.31-1.09-2.89.8l13.88,62c.42,1.88,3.31,1.09,2.89-.8Z"/><path d="M52.14,50.12l-1.21,56c0,1.93,3,1.93,3,0l1.21-56c0-1.93-3-1.93-3,0Z"/><path d="M175.42,154.81c-13.47-1.47-27.78,3.51-35.84,14.8-7.66,10.74-8.73,26.39-.61,37.19,7.18,9.56,20.67,14.61,32.07,10,11.2-4.56,17.89-17.07,15.24-28.84-.42-1.88-3.32-1.09-2.89.8,2.51,11.12-4.8,23.11-15.86,26.08-10.88,2.92-23.07-3.26-28.21-13-5.46-10.39-3.15-23.88,4.42-32.62,7.83-9,20.05-12.62,31.68-11.35,1.92.21,1.9-2.79,0-3Z"/><path d="M160.69,189.18l12-14c1.25-1.46-.86-3.59-2.12-2.12l-12,14c-1.25,1.46.86,3.59,2.12,2.12Z"/><path d="M158.7,203.77l-2-14c-.27-1.9-3.16-1.09-2.89.8l2,14c.27,1.9,3.16,1.09,2.89-.8Z"/><path d="M170.73,168.72l19.93-26.05c1.17-1.53-1.43-3-2.59-1.51l-19.93,26.05c-1.17,1.53,1.43,3,2.59,1.51Z"/><path d="M143.83,63.07,182,47.52c1.76-.72,1-3.62-.8-2.89L143,60.17c-1.76.72-1,3.62.8,2.89Z"/></g></g></svg>