<svg id="Layer_1" data-name="Layer 1" xmlns="http://www.w3.org/2000/svg" viewBox="0 0 287.62 259.42"><title>instagram</title><path d="M151.68,266.73a366.8,366.8,0,0,0,5.73,101q2.57,13,6.1,25.74c1.56,5.66,2.66,13.29,7.21,17.5,4.89,4.53,13.18,4.6,19.36,5.66q13.64,2.32,27.3,4.51,52.39,8.39,105.07,14.84,26.48,3.24,53,6c11.71,1.21,25.82,2.58,31.65-10.11,3.22-7,4.11-15.33,5.73-22.81q2.92-13.46,5.71-26.94c3.55-17.34,6.8-34.75,9.38-52.26,5.14-34.87,7.72-70.43,4.19-105.6-1.16-11.6-3.73-24.35-14.84-30.44-6.52-3.58-14.36-4.6-21.6-5.74-8.07-1.27-16.19-2.16-24.33-2.77-35.55-2.67-71.49-1.55-107.12-1.72l-55-.26c-13.63-.06-28.19-.1-40.66,6.2-23.07,11.65-24.54,39.32-21.07,61.86,1,6.34,2.35,12.61,3.89,18.83.46,1.87,3.36,1.08,2.89-.8-5.33-21.62-11.42-51.49,5.58-69.69,10-10.67,24.83-12.91,38.74-13.33,15.84-.47,31.75,0,47.6.1,33,.16,66.06-.1,99.06.62,15.93.35,31.9,1.19,47.67,3.56,7.09,1.07,14.82,2,21.38,5,7.21,3.37,11,9.79,13,17.27,3.77,14.75,3.46,31.28,3.4,46.4a454.12,454.12,0,0,1-3,48.71c-3.69,33.09-10.36,65.76-17.4,98.27-1.55,7.13-2.61,14.65-4.94,21.57-3,8.92-9.89,12-18.8,11.94-14.77-.11-29.89-2.84-44.56-4.53q-49.86-5.75-99.49-13.26-27.35-4.14-54.62-8.81c-4.16-.71-9.1-1-12.91-2.92-4.39-2.25-5.53-6.94-6.82-11.28q-3.77-12.68-6.57-25.63a363.77,363.77,0,0,1-7-106.7c.16-1.92-2.84-1.91-3,0Z" transform="translate(-146.15 -183.31)"/><path d="M282,254.38c-20.16-3.09-38.22,14-40.35,33.56-2.52,23.09,13.26,44.18,32,55.75a87,87,0,0,0,34.77,12.11c10.49,1.31,22.32.76,31-6.06,9.41-7.43,13.32-20.92,13.51-32.48.18-11-3.31-21.85-9.06-31.17-15-24.25-42.66-35.3-69.7-39.54-1.89-.3-2.7,2.59-.8,2.89,21.09,3.31,42.61,10.39,58.06,25.79s23.46,38.5,14.92,59.56c-4.77,11.76-14.26,17.89-26.8,18.52-10.63.53-21.58-1.88-31.43-5.75-19.63-7.72-37.43-23.64-42.49-44.73-2.78-11.59-.75-23.75,6.79-33.13,6.92-8.62,17.61-14.14,28.79-12.42,1.89.29,2.7-2.6.8-2.89Z" transform="translate(-146.15 -183.31)"/><path d="M291,272.11c-12.12,2-22.11,11.36-23.85,23.68-1.81,12.87,5.27,23.47,15.65,30.33,9.13,6,23.19,10.49,31.5.68,7.34-8.66,5.66-22,1.5-31.69A47.36,47.36,0,0,0,287.29,269c-1.84-.61-2.62,2.29-.8,2.89A44.25,44.25,0,0,1,313,296.28c4.72,10.94,6,31.94-10.45,33.3-12.91,1.07-28.45-10.7-31.82-22.91-4.11-14.94,6.08-29.26,21-31.67,1.9-.31,1.09-3.2-.8-2.89Z" transform="translate(-146.15 -183.31)"/><path d="M152.17,260.52q46.06,7.29,92.33,13.13c1.91.24,1.89-2.76,0-3q-45.87-5.78-91.53-13c-1.89-.3-2.7,2.59-.8,2.89Z" transform="translate(-146.15 -183.31)"/><path d="M334.35,278.42a437.22,437.22,0,0,0,90.84,13.38c1.93.08,1.93-2.92,0-3a433.27,433.27,0,0,1-90-13.28c-1.87-.48-2.67,2.41-.8,2.89Z" transform="translate(-146.15 -183.31)"/><path d="M344.46,217.16c3.83,15.26-4.81,31.56,2.86,46.21A17.69,17.69,0,0,0,360.22,273c8.41,1.41,17.6.38,26.1.37a1.52,1.52,0,0,0,1.45-1.1,164.77,164.77,0,0,0,4.6-36.19c.12-9.44-.88-18-9.54-23.3-9.28-5.7-35-12.57-40.14,1.8-.65,1.82,2.25,2.61,2.89.8,2.54-7.1,12.36-6.36,18.36-5.44,6.88,1.06,14.91,2.71,20.21,7.53,6.81,6.19,5.44,17,5,25.27a161.58,161.58,0,0,1-4.26,28.73l1.45-1.1c-7.71,0-15.59.49-23.28-.08-7.88-.59-12.71-5.53-14.86-12.87-4-13.48,2.61-27.42-.82-41.06-.47-1.87-3.36-1.08-2.89.8Z" transform="translate(-146.15 -183.31)"/><path d="M176,189.19a185,185,0,0,0,5,56.73c.46,1.87,3.35,1.08,2.89-.8A182.31,182.31,0,0,1,179,189.19c.13-1.93-2.87-1.92-3,0Z" transform="translate(-146.15 -183.31)"/><path d="M193,189.26a192,192,0,0,0,8.57,51.9c.57,1.84,3.47,1.05,2.89-.8a189,189,0,0,1-8.46-51.1c-.05-1.93-3.05-1.93-3,0Z" transform="translate(-146.15 -183.31)"/><path d="M216.8,188.72a141.59,141.59,0,0,0-3.18,57.47c.28,1.9,3.17,1.09,2.89-.8a137.81,137.81,0,0,1,3.18-55.87,1.5,1.5,0,0,0-2.89-.8Z" transform="translate(-146.15 -183.31)"/></svg>