<svg xmlns="http://www.w3.org/2000/svg" viewBox="0 0 322.98 295.88"><title>Asset 2</title><g id="Layer_2" data-name="Layer 2"><g id="Layer_1-2" data-name="Layer 1"><path d="M264.33,27.8c-18.52-15.52-40.87-29-65.92-27.71-24,1.25-42.46,16.39-49.35,39.3-4.1,13.64-3.88,28.12-2.4,42.16,1.3,12.31,7.15,30-4,39.39-9.26,7.84-24.68,8.15-36.16,7.68a107.48,107.48,0,0,1-33.33-6.87C48.27,112.38,27,94.1,14.86,70.32c-.73-1.43-2.68-.61-2.8.76a97,97,0,0,0,29.41,77.74l1.06-2.56A79.08,79.08,0,0,1,2.65,135.38a1.52,1.52,0,0,0-2.2,1.69c4.62,28.64,37,35.21,60.83,38.41l-.76-2.8a56.72,56.72,0,0,1-55.71,5.9,1.51,1.51,0,0,0-2.05,2.05C13.08,201,40,209.51,60.25,198.93L58,197.23c-9,22.53-37.84,16.94-55.9,12.15a1.51,1.51,0,0,0-1.46,2.51c35,32.8,86.3,22,127.64,10.08s84.63-28.7,111.12-64.67c13.75-18.67,22-41.44,20.11-64.79l-1.1,1.45,63.7-11.23a1.52,1.52,0,0,0,.36-2.74,125.34,125.34,0,0,0-57-15.6l1.06,2.56a102.54,102.54,0,0,1,43.17-22.72,1.51,1.51,0,0,0,0-2.89L259.34,28a1.5,1.5,0,0,0-.8,2.89L309,44.21V41.32a105.8,105.8,0,0,0-44.5,23.49,1.52,1.52,0,0,0,1.06,2.56A121.88,121.88,0,0,1,321,82.56l.36-2.74L257.65,91a1.5,1.5,0,0,0-1.1,1.45c3.4,42.37-25.85,78.65-60.56,99.17-18.51,10.94-38.81,18.45-59.32,24.7-21.77,6.63-44.23,13.16-67.08,14.37-23.9,1.26-48.89-4.22-66.78-21l-1.46,2.51c12.43,3.3,25.83,6.81,38.63,3.35,9.32-2.52,17.33-8.51,21-17.59.52-1.31-1.16-2.24-2.2-1.69-18.83,9.87-43.83,1.7-53.4-17.21l-2.05,2.05A59.71,59.71,0,0,0,62,175.28a1.52,1.52,0,0,0-.76-2.8c-22.64-3-53.55-9-57.93-36.21L1.13,138a82.28,82.28,0,0,0,41.4,11.29,1.52,1.52,0,0,0,1.06-2.56A94.12,94.12,0,0,1,15.06,71.07l-2.8.76c20.2,39.6,65.82,64.39,110.09,59.18,9.61-1.13,20.83-3.67,26.38-12.47,6.48-10.27,2.41-23.91,1.14-35.07-3.13-27.53-.4-62.09,28.2-75.5,29.67-13.91,61.4,2.89,84.14,21.94,1.47,1.23,3.6-.88,2.12-2.12Z" transform="translate(-0.24)"/><path d="M192,196.64a227.45,227.45,0,0,0,43.61,47.92c7.14,5.86,14.82,12.27,24.23,13.76,10.64,1.69,21-2.94,30.43-7.25,1.75-.8.23-3.39-1.51-2.59-9.74,4.44-20.78,9.34-31.64,6.17-9.38-2.74-17.45-10.38-24.64-16.67a225,225,0,0,1-37.88-42.86c-1.08-1.59-3.68-.09-2.59,1.51Z" transform="translate(-0.24)"/><path d="M259.63,259.2a101.93,101.93,0,0,0,20.23,21.3c1.5,1.18,3.64-.93,2.12-2.12a99.32,99.32,0,0,1-19.77-20.7c-1.11-1.56-3.71-.07-2.59,1.51Z" transform="translate(-0.24)"/><path d="M265.53,261.89l20,6c1.85.56,2.65-2.34.8-2.89l-20-6c-1.85-.56-2.65,2.34-.8,2.89Z" transform="translate(-0.24)"/><path d="M189.59,199.14a411.63,411.63,0,0,0,34.29,75.92,1.5,1.5,0,0,0,2.59-1.51,407.69,407.69,0,0,1-34-75.2c-.61-1.82-3.51-1-2.89.8Z" transform="translate(-0.24)"/><path d="M224,274.77l2.8,20c.27,1.9,3.16,1.09,2.89-.8l-2.8-20c-.27-1.9-3.16-1.09-2.89.8Z" transform="translate(-0.24)"/><path d="M226.4,279.4l15.79,10.32c1.62,1.06,3.13-1.54,1.51-2.59l-15.79-10.32c-1.62-1.06-3.13,1.54-1.51,2.59Z" transform="translate(-0.24)"/><path d="M226.93,275.95l26,2c1.93.15,1.92-2.85,0-3l-26-2c-1.93-.15-1.92,2.85,0,3Z" transform="translate(-0.24)"/><path d="M195.48,61.6c-4.13-2.88-1.79-9.15,1.7-11.44,4.24-2.78,9.88-2.29,14.69-2,1.93.13,1.92-2.87,0-3-6.5-.42-15-.7-19.27,5.22C189.48,54.7,189.34,61,194,64.19c1.59,1.11,3.09-1.49,1.51-2.59Z" transform="translate(-0.24)"/><path d="M194,63.4c4.69,4.58,12.48,5.51,17.77,1.31s6.24-12,2.83-17.59A1.5,1.5,0,0,0,212,48.63c2.64,4.37,2,10.4-2.09,13.69s-10.15,2.54-13.8-1c-1.38-1.35-3.51.77-2.12,2.12Z" transform="translate(-0.24)"/><path d="M206.74,58l-1.58-7.6-.69,1.69a3.86,3.86,0,0,1,5.44,1.52c1.08,2.46-1.45,5-3.83,4.85-1.93-.09-1.92,2.91,0,3,4.37.21,8.21-4.33,6.75-8.61-1.34-3.92-6.45-5.49-9.87-3.35a1.55,1.55,0,0,0-.69,1.69l1.58,7.6c.39,1.89,3.28,1.09,2.89-.8Z" transform="translate(-0.24)"/><path d="M190.93,55.95h-2a1.5,1.5,0,0,0,0,3h2a1.5,1.5,0,0,0,0-3Z" transform="translate(-0.24)"/><path d="M193.93,50.95a1.5,1.5,0,0,0,0-3,1.5,1.5,0,0,0,0,3Z" transform="translate(-0.24)"/><path d="M176.25,61.45a28.62,28.62,0,0,1,21.06-27.6,1.5,1.5,0,0,0-.8-2.89,31.68,31.68,0,0,0-23.26,30.49,1.5,1.5,0,0,0,3,0Z" transform="translate(-0.24)"/><path d="M160.64,137.18c-8.86,16.86-29.77,16.56-46.22,15.69a1.51,1.51,0,0,0-1.06,2.56,73.59,73.59,0,0,0,79.23,9c1.73-.87.21-3.46-1.51-2.59a70.47,70.47,0,0,1-75.59-8.57l-1.06,2.56c17.56.93,39.43.69,48.81-17.18.9-1.71-1.69-3.23-2.59-1.51Z" transform="translate(-0.24)"/></g></g></svg>