<svg id="Layer_1" data-name="Layer 1" xmlns="http://www.w3.org/2000/svg" viewBox="0 0 487.46 520.22"><title>twitter</title><path d="M336.71,355.8c-19.84-.47-39.71-.72-59.54-1.53-18.42-.75-37-2.38-54.73-7.65-30.34-9-60.17-32-63.78-65.51-.17-1.56-2.54-2.18-2.95-.4-10.71,46.84,5.78,98,42,129.63l1.06-2.56c-29,2.7-51-21.58-67.94-41.79a1.51,1.51,0,0,0-2.56,1.06C129,412.8,155.62,456.33,196,477.9l.36-2.74a68,68,0,0,1-63.78-12.66,1.51,1.51,0,0,0-2.51,1.46c8.89,38.8,38.73,71.12,76.64,83.19l-.9-2.2c-4.63,8.94-12.85,15.21-20.24,21.77l-25.75,22.85-50.76,45.05a1.51,1.51,0,0,0,.3,2.36A101,101,0,0,0,175,644c12.14-2.85,23.42-8.28,35-12.69,12.19-4.63,24.87-7.58,37.54-10.56a431.07,431.07,0,0,0,120.61-48,425.14,425.14,0,0,0,98.29-79.82c14.75-16.22,29.5-33.74,40.09-53,11.86-21.59,13.07-45.11,13.84-69.2.46-14.66.84-29.34.08-44-.34-6.48-.9-12.95-1.77-19.38-1-7.4-3.22-14.85-3.57-22.32-.38-8,3.07-13,9.06-17.88s12.18-9.54,18.26-14.3L578.05,225c1-.75.29-2.19-.66-2.51a110.46,110.46,0,0,0-59.58-3.36q-5.14,1.13-10.15,2.76c-1.51.49-3.37,1.58-5,1.75q-2.39,1.75-4.07-1.29a7,7,0,0,1-.09-3c.6-6.56,5.75-12.84,9.17-18.21q5.87-9.2,12.25-18.06a387.57,387.57,0,0,1,29.09-35.59A1.51,1.51,0,0,0,547.6,145a179,179,0,0,0-93.12,44.19l2.51.66c-4.4-18.24-19.14-32.48-36.85-38-20.74-6.52-40.26,1.48-55.87,15.45a209.49,209.49,0,0,0-43.95,56.4c-10.57,19.81-17.14,42-15.84,64.61,1.34,23.47,10.69,46.58,28.91,61.93,1.47,1.24,3.6-.88,2.12-2.12-33.33-28.07-33.88-76.91-17-114,9-19.83,22.2-37.58,36.83-53.61,13.89-15.21,31.45-29.88,53.37-27.92,21.09,1.89,40.39,17.37,45.39,38.11a1.52,1.52,0,0,0,2.51.66,176.26,176.26,0,0,1,91.8-43.42l-1.46-2.51a393.5,393.5,0,0,0-31.15,38.41q-7.37,10.38-14,21.23c-2.94,4.79-6.56,10.1-6.29,16,.17,3.86,2.39,7.65,6.41,6.17a121.78,121.78,0,0,1,23.63-6.44,108.43,108.43,0,0,1,51.09,4.65l-.66-2.51L545,247.1l-15.47,12.11c-4.47,3.5-9.63,6.81-13.2,11.28-6.17,7.72-4.07,17.47-2.35,26.37a235.19,235.19,0,0,1,3.86,39.42c.28,12.76-.13,25.52-.54,38.27-.41,12.57-.79,25.27-3.43,37.61-5.06,23.69-20,43.46-35,61.87a421.84,421.84,0,0,1-209,137.91c-12.86,3.69-26,6.42-38.91,9.75-13.67,3.51-26.43,8.8-39.54,13.88-26.41,10.24-54.55,10.92-80.53-1.2l.3,2.36,52.23-46.36,25.75-22.85c7.14-6.33,14.77-12.45,19.23-21.07a1.52,1.52,0,0,0-.9-2.2c-36.95-11.76-65.89-43.32-74.55-81.09l-2.51,1.46A71.06,71.06,0,0,0,197.15,478a1.52,1.52,0,0,0,.36-2.74C158.05,454.23,132,411.79,131.23,367l-2.56,1.06c17.46,20.81,40.25,45.45,70.07,42.67,1.18-.11,2.13-1.63,1.06-2.56-35.37-30.95-51.67-80.87-41.19-126.71l-2.95-.4c2.62,24.32,18.88,44.3,39.28,56.78,25.31,15.48,55.93,18.44,84.94,19.49,18.93.69,37.89,1,56.83,1.42,1.93,0,1.93-3,0-3Z" transform="translate(-108.64 -144.96)"/><path d="M369.06,231.61a53.38,53.38,0,0,1,22.61-35.14c12.65-8.46,36.08-12.58,42.07,6.11.59,1.83,3.48,1,2.89-.8-5.75-17.92-27.11-18.18-41.33-10.93-15.36,7.84-26.16,23.07-29.14,40-.33,1.89,2.56,2.7,2.89.8Z" transform="translate(-108.64 -144.96)"/><path d="M404.31,253.6c-.41,9.71,8.47,17.46,17.94,17.44,10.43,0,18.82-9,21.76-18.4,3.05-9.76-1.13-18.75-11.75-20.19-12.21-1.65-20.66,8.7-27.27,17.39-1.17,1.54,1.44,3,2.59,1.51,5.16-6.78,11.6-15.36,20.87-16,10.2-.76,15.72,7,12.66,16.54-2.33,7.31-8.14,14.27-15.91,15.89-8.73,1.82-18.27-4.9-17.89-14.12.08-1.93-2.92-1.93-3,0Z" transform="translate(-108.64 -144.96)"/><path d="M423.73,252.15l.17,5.55a1.52,1.52,0,0,0,1.9,1.45c4.57-1,7.51-6.54,5.32-10.84s-8.24-5.12-11.88-2.17c-1.5,1.22.63,3.33,2.12,2.12,2.14-1.74,6-1,7.16,1.56s-.85,5.83-3.53,6.43l1.9,1.45-.17-5.55c-.06-1.93-3.06-1.93-3,0Z" transform="translate(-108.64 -144.96)"/><path d="M420.61,241.65a26.19,26.19,0,0,0-4.34,22.09,1.53,1.53,0,0,0,1.45,1.1c7.33.26,16.67-2.75,17-11.5.25-6.25-6.6-11-12.13-7.49-1.62,1-.12,3.63,1.51,2.59a4.92,4.92,0,0,1,6.09.68c2.27,2.26,1.68,5.76,0,8.17-2.78,4.06-8,4.72-12.53,4.55l1.45,1.1a23.27,23.27,0,0,1,4-19.78c1.15-1.56-1.46-3.05-2.59-1.51Z" transform="translate(-108.64 -144.96)"/><path d="M457.39,508.74a389.81,389.81,0,0,0,104.43,69.94c1.74.8,3.27-1.79,1.51-2.59a387.35,387.35,0,0,1-103.83-69.47c-1.41-1.32-3.54.8-2.12,2.12Z" transform="translate(-108.64 -144.96)"/><path d="M447.35,522.16l34.84,86.71c.71,1.77,3.61,1,2.89-.8l-34.84-86.71c-.71-1.77-3.61-1-2.89.8Z" transform="translate(-108.64 -144.96)"/><path d="M485.53,616.19c-5.36,9.13.24,18.71,7.39,24.87,9.91,8.55,21,16,31.46,23.82,1.54,1.16,3-1.44,1.51-2.59L501.51,644c-7.8-5.87-19.92-15.14-13.39-26.27a1.5,1.5,0,0,0-2.59-1.51Z" transform="translate(-108.64 -144.96)"/><path d="M486.08,610.2,537.88,624a1.5,1.5,0,0,0,.8-2.89l-51.8-13.81a1.5,1.5,0,0,0-.8,2.89Z" transform="translate(-108.64 -144.96)"/><path d="M490.12,616.3a274.91,274.91,0,0,0,37.31,31.09c1.59,1.1,3.09-1.5,1.51-2.59a270.52,270.52,0,0,1-36.7-30.63,1.5,1.5,0,0,0-2.12,2.12Z" transform="translate(-108.64 -144.96)"/><path d="M568.48,573.49,581,526.62a1.5,1.5,0,0,0-2.89-.8L565.59,572.7a1.5,1.5,0,0,0,2.89.8Z" transform="translate(-108.64 -144.96)"/><path d="M565,570.47a78,78,0,0,1-21-53.8,1.5,1.5,0,0,0-3,0,81.12,81.12,0,0,0,21.87,55.93c1.32,1.41,3.44-.71,2.12-2.12Z" transform="translate(-108.64 -144.96)"/><path d="M565.9,574.35l29.12-6c1.89-.39,1.09-3.28-.8-2.89l-29.12,6c-1.89.39-1.09,3.28.8,2.89Z" transform="translate(-108.64 -144.96)"/><path d="M392.15,253.73a10.07,10.07,0,0,0,12.71,8.54c1.84-.57,1.05-3.46-.8-2.89-3.87,1.19-8.45-1.5-8.92-5.65-.21-1.9-3.21-1.92-3,0Z" transform="translate(-108.64 -144.96)"/><path d="M401.42,246.43l3.24,6.45c.87,1.73,3.46.21,2.59-1.51L404,244.92c-.87-1.73-3.46-.21-2.59,1.51Z" transform="translate(-108.64 -144.96)"/><path d="M409.43,236a9,9,0,0,0,5.27,8c1.75.77,3.28-1.81,1.51-2.59a6.07,6.07,0,0,1-3.78-5.38c-.07-1.93-3.07-1.93-3,0Z" transform="translate(-108.64 -144.96)"/><path d="M420.5,226.35v11.29a1.5,1.5,0,0,0,3,0V226.35a1.5,1.5,0,0,0-3,0Z" transform="translate(-108.64 -144.96)"/><path d="M430.15,228.39a8.94,8.94,0,0,1-1.35,6.91c-1.06,1.62,1.54,3.13,2.59,1.51a12,12,0,0,0,1.65-9.22c-.4-1.89-3.3-1.09-2.89.8Z" transform="translate(-108.64 -144.96)"/></svg>