<svg xmlns="http://www.w3.org/2000/svg" viewBox="0 0 163.05 219.71"><title>Asset 1</title><g id="Layer_2" data-name="Layer 2"><g id="Layer_1-2" data-name="Layer 1"><path d="M25.33,41.18l40.52-.64,19.77-.31,10.87-.17c2.66,0,6.18-.53,8.64.64,4.92,2.33,4.94,7.78,1.64,11.5-2.08,2.34-5.17,3.63-8,4.71-5.88,2.22-12,4-17.93,6L41,76.08A1.51,1.51,0,0,0,41,79c31.7,11.8,65.44,15.49,98.85,19,1.92.2,1.9-2.8,0-3-33.16-3.49-66.6-7.19-98.06-18.9V79L91.09,62.63C99.16,60,116,55.43,111.71,43.16c-1.54-4.44-6.09-5.86-10.37-6.1-8.13-.47-16.46.18-24.61.31l-51.4.81c-1.93,0-1.93,3,0,3Z"/><path d="M77.1,47.16a464.76,464.76,0,0,0,29,140.12c.67,1.79,3.57,1,2.89-.8A462.09,462.09,0,0,1,80.1,47.16c-.1-1.92-3.1-1.93-3,0Z"/><path d="M86.38,207c-25.27-21.81-6.95-61.69-25-87.48a35.22,35.22,0,0,0-15.45-12.15c-8.26-3.54-17.85-5.07-24.77-11.19-15-13.29-8.52-37.58,10.2-43L30.2,50.43C23.75,55,15.51,53.27,9.74,48.35,3.45,43,1.64,34.89,4.14,27.11,10.35,7.75,32.25,2.91,50.11,3a378.2,378.2,0,0,1,61,5.85c9.22,1.59,19.24,4.2,25.2,12C142.46,29,141.41,38.23,134,45c-5.4,4.95-12.08,8.77-15,15.85-2.29,5.55-1.06,11.48,3.75,15.21C128,80.15,134.94,80.76,141,83c8.34,3.13,16.61,9.6,18.71,18.67,1.85,8-2.83,18.18-11.2,20.33-7.33,1.88-14.46-3.73-21.56-4.65-5.06-.65-9.88,1.53-11.71,6.54-2.59,7.1,1,15.87,3.15,22.6,5.85,18.19,14.8,39.26,4.73,57.72-4.23,7.76-11.6,12.73-20.56,12.48-7.77-.22-15.4-4.29-17.41-12.2-.48-1.87-3.37-1.08-2.89.8,3.3,13,19.24,17.24,30.64,12.56,14.94-6.14,19-25,17.36-39.46-1.19-10.69-5.07-20.82-8.41-31-2.78-8.45-10.22-30.83,7-26.63,7.35,1.79,14.46,6.49,22.18,3.53,6.2-2.38,10.47-8.63,11.7-15,1.44-7.49-1.63-14.79-6.79-20.19-6.1-6.37-13.94-9-22.16-11.42-4.38-1.28-9.78-2.89-12-7.29-3.47-6.79,2.81-13.67,7.63-17.71,6-5,13.13-9.82,14.09-18.3,2.24-19.84-20.58-26.79-35.71-29.09Q90.05,2.65,72.21,1.23C61.2.35,50-.63,38.93.53,20.88,2.42-.88,14.07,0,35.12.66,49.73,18.67,62.31,31.71,53c1.31-.94.58-3.25-1.16-2.74C19.46,53.5,10.74,63.14,9.74,74.84,8.62,88,16.79,99,28.52,104.12c6.72,2.92,14,4.44,20.45,8.06,6.68,3.77,11.33,9.91,14.14,17,5.21,13.07,4.61,27.27,5.7,41,1.13,14.23,4.15,29.19,15.44,38.94,1.45,1.26,3.59-.86,2.12-2.12Z"/></g></g></svg>